<?xml version="1.0" encoding="utf-8"?>
<!-- Generator: Adobe Illustrator 17.1.0, SVG Export Plug-In . SVG Version: 6.00 Build 0)  -->
<!DOCTYPE svg PUBLIC "-//W3C//DTD SVG 1.1//EN" "http://www.w3.org/Graphics/SVG/1.1/DTD/svg11.dtd">
<svg version="1.1" id="Layer_1" xmlns="http://www.w3.org/2000/svg" xmlns:xlink="http://www.w3.org/1999/xlink" x="0px" y="0px"
	 viewBox="0 18 612 604.5" enable-background="new 0 18 612 604.5" xml:space="preserve">
<g id="Layer_2" display="none">
	<g id="O3btSA_1_" display="inline">
	</g>
</g>
<g id="Layer_1_1_">
	<g>
		<path fill="#FBA919" d="M115.4,174c0,0,9.7,37.6,11.2,50.2c1.4,12.6-25.2,40.5-25.2,54.4s5.6,38.9,36.2,51.5
			c30.6,12.6,34.9,44.5,34.9,64.1s-11.2,57.1-11.2,57.1s-7,93.3,30.6,110c37.6,16.7,29.2,16.7,37.6,16.7c8.3,0,69.7,25.2,105.9,15.3
			c36.2-9.7,45.9-20.9,45.9-20.9s36.2,2.7,47.4-29.2c11.2-32,18.2-98.9,13.9-129.5s-9.7-71.1,15.3-85c25.2-13.9,51.5-30.6,47.4-44.5
			c-4.2-13.9-26.5-33.5-26.5-33.5s-5.6-34.9-1.4-43.2s29.2-29.2,15.3-44.5c-13.9-15.3-38.9-15.3-38.9-15.3l-32,2.7
			c0,0-54.4-48.8-125.5-45.9c-71.1,2.7-115.6,45.9-115.6,45.9s-23.6-8.3-44.5,0C115.4,158.7,111.2,150.3,115.4,174z"/>
		<path fill="#E78724" d="M242.8,381.4c0,0-27.5,42.2-47.8,72.1c-3.1,4.6,20.2,4.9,20.2,4.9L242.8,381.4z"/>
		<path fill="#E78724" d="M255.9,294c0,0-8.3,20.7-12.9,31.8c-4.9,11.9-23.8,17.9-23.8,17.9s9.7-10.2,9.7-36.2
			c0-10.9,14.1-15.3,14.1-15.3L255.9,294z"/>
		<path fill="#E78724" d="M247.5,305.7c0,0-17,20.2-48.6,8.8c-31.6-11.4-34.9-51.9-34.9-63.2s60,11.4,68.2,16.2
			S255.5,292,247.5,305.7z"/>
		<path fill="#E78724" d="M128,89c0,0,29.2-5.6,48.6,9.7c19.6,15.5,25.2,27.5,25.2,27.5L169,152.4c0,0-15.8-7.3-20.7-28.4
			C143.3,102.7,146.5,93.1,128,89z"/>
		<path fill="#E78724" d="M238.9,247.1c-12.6-17.9-33.3-25.7-49.8-26.9c-28.2-2.2-41.6,7.8-41.6,7.8s46.2,2,59.5,19.4
			c24.8,32.6,61,35.2,66.8,28.1c-6.6,0.3-14.1-3.1-21.9-10.4C246.8,260.3,242.9,252.9,238.9,247.1z"/>
		<path fill="#E78724" d="M161,310.3c0,0-51.3-17.7-41.5-35.5c9.7-17.9,2-27.5,2-27.5s-28.7,21.2-21.4,44
			c4.4,13.9,12.1,24,53.4,43.4c19.9,36.7,4.1,103,5.1,103.4c1.5,0.5,27.9-12.9,26-75C183.9,344,182.4,318.1,161,310.3z"/>
		<path fill="#E78724" d="M228.1,120.8c-21.4,10.9-51,26.2-51,26.2l11.6,5.8c-1.2,1.9-1.7,2.9-1.7,2.9l11.9,5.4
			c0,0,29.1,21.1,46.8,34.5c-5.9-18.2-23.3-46.9-23.3-46.9S217.6,135.4,228.1,120.8z"/>
		<path fill="#E78724" d="M299.5,565.8c-66.1,0-88.4-33.5-88.4-33.5l10.4,25.2c3.9,10.9,45.6,44.7,78,44.7"/>
		<path fill="#E78724" d="M218.3,509.7c0,0,6.1,37.2,30.4,37.2c20.7,0,26.9-31.5,26.9-37.9L218.3,509.7z"/>
		<path fill="#E78724" d="M177.8,453.6c2.2-6,9.7-30.1,12.2-51.9c2.9-26.2,1.9-64.6,1.9-64.6s-6.5,25.2-12.2,29.2
			c-5.6,4.1-16.2,31.6-16.2,31.6s-5.6,41.1-8.3,54.9C162.5,454.3,168.8,449.9,177.8,453.6z"/>
		<path fill="#E78724" d="M119,290.9c0,0,13.8-4.9,17.9-34.9c4.1-30.1-4.9-55.9-4.9-55.9s0.9,41.3-4.1,49.5
			c-4.9,8.2-8.8,10.5-14.6,21.1C107.6,281.1,115.8,287.7,119,290.9z"/>
		<path fill="#87CCEE" d="M192.3,153.1"/>
		<path fill="#FDC168" d="M135.5,96.1l-2.9-1.7C124.4,94.6,135.5,96.1,135.5,96.1z"/>
		<path fill="#FBA919" d="M239.4,111.8c0,0-12.9-2.2-19.6-11.9c-6.5-9.7-24.8-29.2-54.2-29.4c-29.2-0.2-58.3,7.8-58.3,7.8l25.3,16
			c2.7-0.2,7.3,0,15.1,0.2c31.8,1,36.7,32.5,36.7,32.5l112-15.5"/>
		<path fill="#FFFFFF" d="M250.2,285.3c0,0-15.1,15.1-38.4,10.2s-37.4-15.1-38.4-33c-1-17.9,4.9-24.8,4.9-24.8s26,8.2,38.4,18.9
			C229,267.5,238.2,284.8,250.2,285.3z"/>
		<path fill="#C9C9C9" d="M231.9,280.1c0,0-13.1,5.9-27.9,1.2c-19.2-6.5-20.6-26.3-20.6-26.3s-11.7,34.7,21.2,41.3
			c26.5,5.3,42.2-10,42.2-10L231.9,280.1z"/>
		<path fill="#463014" d="M246.8,473.9"/>
		<path fill="#463014" d="M241.2,104.4c-1.4-29.8,22.9-53.4,31.3-54.4c0.5,5.1-0.5,24.6,8,30.6c2.4-16,10.7-33.7,43.5-45.2
			c-7,18.5-1,34.2,2,41.5c22.4-20.2,37.4-17,37.4-17s-15.5,26.9-9.5,44.4C309.1,101,241.4,109.2,241.2,104.4z"/>
		<path fill="#463014" d="M146,149.7c-10.7-8.8-2.7-17.2-3.6-27.2c-0.5-5.4-0.8-10.4-2.7-13.3c-9.9-15.6-33.1-20.2-33.3-20.4
			l-10.9-2.2l7.3-8.5c1-1,30.6-29.4,76.5-14.6c32.1,10.4,55.9,45.6,56.8,46.9L220,118c-0.2-0.3-19-33.3-46.6-42.2
			c-22.3-7.1-42.8-0.3-51.7,4.1c9.4,3.7,21.6,10.5,28.9,22.1c3.4,5.4,4.1,12.4,4.6,19c0.7,8.8,1.4,17.2,8,22.6L146,149.7z"/>
		<path fill="#463014" d="M117.3,279.4c0,0,13.4-16.7,17.5-49.3c1.5-12.8-1.2-38.1-5.6-47.9c0.9,24-5.3,47.9-5.3,47.9
			S119.9,274.6,117.3,279.4z"/>
		<path fill="#463014" d="M188.5,132.8c0,0-4.2-18.9-16.3-28.6c-16.8-13.4-37.6-6.3-37.7-6.3l-3.1-9.2c1-0.3,24.7-7.8,46.4,7.5
			c21.9,15.3,24.5,29.2,24.8,30.9L188.5,132.8z"/>
		<path fill="#463014" d="M159.8,267.5c0,0-7.1-10.2-5.8-21.3c0.7-5.4,3.2-11.2,7.8-13.1c8.5-3.7,12.2,6,12.2,6
			S162,241.8,159.8,267.5z"/>
		<path fill="#463014" d="M246.8,473.9"/>
		<path fill="#463014" d="M237.5,282.9c0.3,0.5,0.5,0.9,0.5,0.9s-22.1,16.7-44.7-0.2c-12.1-9-11-31.3-7.3-40.8
			c9.7,2.2,17.9,6.1,24.6,10.7c-8.7-7.7-16.1-13.4-16.1-13.6l-9.9-2.7l-19-6.6c-0.2,1.5-7.1,34.2,12.9,56.4
			c8.8,9.9,50.7,32,70.6-5.8L237.5,282.9z"/>
		<path fill="#463014" d="M235.5,285.3c12.4,18.9,43.9,8.2,43.4-11.9c0,0-20.9,11.6-39.4-9.7c-10.9-12.4-45.4-46.8-92.5-35.4
			C179.2,235.5,222.2,265.1,235.5,285.3z"/>
		<g>
			<path fill="#463014" d="M246.8,473.9"/>
		</g>
		<path fill="#463014" d="M142.3,338.7c3.1,1.7,13.6,12.6,13.6,29.1c0,8.2-0.9,49.3-4.9,74.5c6.1,3.9,10.4,4.8,16.5,8.8
			c3.1-29.1,5.3-71.4,4.2-88.4c-1.2-19.4-11.6-32.5-21.2-38.1c-3.1-1.7-6.1-3.4-9.4-5.1c-16.5-9-33.7-18.2-33.7-34
			c0-12.4,4.8-16.1,9.9-20.2l0.5-0.5c3.4-2.7,7.1-5.8,9.5-10.9c6.1-13.9,7.1-49.1,0-58.1c-3.6-4.4-13.1-19.5-10.4-29.6
			c1-3.9,3.4-6.6,7.5-8.7c4.3-2.2,9.9-3.2,16.8-3.2c13.6,0,28.7,4.1,36.6,6.6c27.9,9,61.5,34.5,71.2,42c0.3,0.2,0.5,0.3,0.5,0.3
			l6.1,4.2l-3.9-6.5c-0.2-0.3-24.7-40.6-68.5-55.4c-8.5-2.9-25.2-7.7-41.6-7.7c-9.9,0-18,1.7-24.7,5.1c-8,4.1-13.4,10.7-15.6,18.9
			c-5.4,20.2,12.4,42.8,13.1,43.5c2,3.7,3.1,30.9-1.9,41.8c-0.7,1.5-2.5,3.1-4.8,4.9c-0.7,0.5-1.5,1.2-2.4,1.9
			c-6.8,5.1-17.2,12.9-17.2,30.9c0,24.6,25,37.9,44.9,48.6C136.3,335.5,139.6,337.2,142.3,338.7z"/>
		<g>
			<g>
				<path fill="#463014" d="M146,149.7c-10.7-8.8-2.7-17.2-3.6-27.2c-0.5-5.4-0.8-10.4-2.7-13.3c-9.9-15.6-33.1-20.2-33.3-20.4
					l-10.9-2.2l7.3-8.5c1-1,30.6-29.4,76.5-14.6c32.1,10.4,55.9,45.6,56.8,46.9L220,118c-0.2-0.3-19-33.3-46.6-42.2
					c-22.3-7.1-42.8-0.3-51.7,4.1c9.4,3.7,21.6,10.5,28.9,22.1c3.4,5.4,4.1,12.4,4.6,19c0.7,8.8,1.4,17.2,8,22.6L146,149.7z"/>
			</g>
			<g>
				<path fill="#463014" d="M145.7,151.5L145,151c-8-6.6-6.5-13.1-5.1-19.4c0.7-2.9,1.4-5.9,1-9c-0.5-5.1-0.9-10-2.4-12.6
					c-9.3-14.8-32.1-19.6-32.3-19.6l-13.6-2.7l9-10.5c0-0.2,19-19.4,51.3-19.4c8.8,0,17.9,1.5,26.9,4.4
					c33.5,10.9,57.5,47.3,57.6,47.6l1,1.5l-19.2,8.8l-0.7-1.2c-2-3.6-20.1-33.3-45.7-41.5c-6.3-2-12.9-3.1-19.7-3.1
					c-12.2,0-22.1,3.4-27.5,5.6c8.8,3.9,19.6,10.7,26.4,21.4c3.7,5.8,4.2,12.9,4.9,19.9c0.7,8.5,1.4,16.7,7.3,21.6l2.2,1.9
					L145.7,151.5z"/>
			</g>
		</g>
		<g>
			<g>
				<path fill="#463014" d="M188.5,132.8c0,0-4.2-18.9-16.3-28.6c-16.8-13.4-37.6-6.3-37.7-6.3l-3.1-9.2c1-0.3,24.7-7.8,46.4,7.5
					c21.9,15.3,24.5,29.2,24.8,30.9L188.5,132.8z"/>
			</g>
			<g>
				<path fill="#463014" d="M187.3,135l-0.3-1.9c0-0.2-4.2-18.4-15.8-27.5c-6.5-5.3-14.4-7.8-23.5-7.8c-7,0-12.2,1.7-12.8,1.9
					l-1.5,0.5l-4.1-12.4l1.5-0.5c0.7-0.2,7-2.2,15.8-2.2c11.7,0,22.8,3.4,32,9.9c22.4,15.8,25.2,30.3,25.3,32l0.2,1.2L187.3,135z
					 M147.7,94.6c9.7,0,18.4,2.9,25.5,8.5c10.2,8.2,15,22.4,16.5,27.5l11.1-4.4c-1-3.9-5.4-15.6-23.8-28.6c-8.8-6.1-19-9.4-30.3-9.4
					c-6.1,0-10.9,1-13.3,1.5l2,6.1C137.9,95.4,142.3,94.6,147.7,94.6z"/>
			</g>
		</g>
		<path fill="#463014" d="M247.7,538L247.7,538c-4.8,0-9.7-1.7-13.1-4.8c-2.6-2.2-11.4-10.4-15.3-20.2c-1.5-3.7-1.2-6.6,1-8.8
			c1.5-1.5,4.4-3.2,10.5-3.2h4.2c5.1,0,13.8,0,21.2,0h7.1c4.6,0,8,1,9.9,2.9c2.4,2.5,1.7,5.8,1,7.5c-1.2,2.9-6.1,12.6-14.5,21.6
			C257,536.1,252.6,538,247.7,538z"/>
		<path fill="#463014" d="M252.8,286.5l-17.3-1.2c0,0,4.4,7.8,7.3,17.9c3.2,11.4-2.9,28.1-2.9,28.1S262.8,305.2,252.8,286.5z"/>
		<g>
			<path fill="#463014" d="M231.2,583.7c-61.5-4.8-83.3-62.9-83.3-75.1h16.1h-8h8c0,5.3,16.5,55.1,68.5,59L231.2,583.7z"/>
		</g>
		<path fill="#FFFFFF" d="M213.9,479.3c-1-5.6-1-10.9,0.2-16c-4.8-3.6-13.1-4.8-19.4-6.8c-5.1-3.2-31.4,3.4-50.7-19.9
			c-24-29.1-18.9-46.2-18.9-46.2c-6.1,6.8-12.1,4.2-21.4,36s4.4,54.1,30.1,76.3c12.1,10.5,29.2,14.8,44,16.5
			c-4.9-4.9,8.5-5.4,17.7-8.8c-0.7-7.5,0.5-14.6,6.1-20.6c3.4-3.6,7.6-5.6,12.1-7.3c0.2-0.5,0.5-1.2,0.7-1.7
			C214,480.3,213.9,479.8,213.9,479.3z"/>
		<path fill="#C9C9C9" d="M195.2,510.1c-0.5-1.5-1-3.2-1.4-4.8c-0.5-1.7-2.6-6.8,0-1c-0.7-1.5-1.2-2.9-1.4-4.4
			c-41.7,0-77.9-28.6-70.9-88.7c-5.4-7.3-13.1,14.6-13.1,14.6s-20.9,60.5,33,84c17.8,7.8,33.8,13.4,37.6,11.2
			c7.8,1.5,14.8-3.9,17.5-7.5C196,512.3,195.5,511.3,195.2,510.1z"/>
		<path fill="#463014" d="M213,470.6c0-5.1,1-10,3.6-15c0.2-0.3,0.3-0.7,0.5-1c-16-0.2-34.5-1.7-50.1-8c-17.3-7-38.9-30.6-42.5-58.3
			c0,0-32.5,25.2-22.9,78.7c9,50.5,51.2,66.8,99.3,69.7c0-0.3-5.4-11.6-3.7-18.4c-27.4,2-57.8-8.5-72.6-32.8
			c-13.4-22.3-9.7-60.2-4.2-65.6C133.8,462.6,182.6,471.3,213,470.6z"/>
		<path fill="#463014" d="M299.5,536.8"/>
		<path fill="#463014" d="M218.1,440c-8.7,25.3-26.4,45.9-26.4,45.9s24.3-1.2,25.7-5.4c1-3.2,21.9-52.4,30.1-109.8
			C239.9,383.2,218.8,437.8,218.1,440z"/>
		<path fill="#E78724" d="M356,381.4c0,0,27.5,42.2,47.8,72.1c3.1,4.6-20.2,4.9-20.2,4.9L356,381.4z"/>
		<path fill="#E78724" d="M342.9,294c0,0,8.3,20.7,12.9,31.8c4.9,11.9,23.8,17.9,23.8,17.9s-9.7-10.2-9.7-36.2
			c0-10.9-14.1-15.3-14.1-15.3L342.9,294z"/>
		<path fill="#E78724" d="M351.2,305.7c0,0,17,20.2,48.6,8.8c31.6-11.4,34.9-51.9,34.9-63.2s-60,11.4-68.2,16.2
			C358.5,272.4,343.1,292,351.2,305.7z"/>
		<path fill="#E78724" d="M470.7,89c0,0-29.2-5.6-48.6,9.7c-19.5,15.5-25.2,27.5-25.2,27.5l32.8,26c0,0,15.8-7.3,20.7-28.4
			C455.3,102.7,452,93.1,470.7,89z"/>
		<path fill="#E78724" d="M359.7,247.1c12.6-17.9,33.3-25.7,49.8-26.9c28.2-2.2,41.7,7.8,41.7,7.8s-46.2,2-59.5,19.4
			c-24.8,32.6-61,35.2-66.8,28.1c6.6,0.3,14.1-3.1,21.9-10.4C351.7,260.3,355.8,252.9,359.7,247.1z"/>
		<path fill="#E78724" d="M437.8,310.3c0,0,51.3-17.7,41.5-35.5c-9.7-17.9-2-27.5-2-27.5s28.6,21.4,21.2,44
			c-4.4,13.9-12.1,24-53.4,43.4c-19.9,36.7-4.1,103-5.1,103.4c-1.5,0.5-27.9-12.9-26-75C414.8,344,416.3,318.1,437.8,310.3z"/>
		<path fill="#E78724" d="M370.6,120.8c21.4,10.9,51,26.2,51,26.2l-11.6,5.8c1.2,1.9,1.7,2.9,1.7,2.9l-11.9,5.4
			c0,0-29.1,21.1-46.9,34.5c6-18.2,23.3-46.9,23.3-46.9S381.1,135.4,370.6,120.8z"/>
		<path fill="#E78724" d="M299.2,565.8c66.1,0,88.4-33.5,88.4-33.5l-10.4,25.2c-3.9,10.9-45.6,44.7-78,44.7"/>
		<path fill="#E78724" d="M380.3,509.7c0,0-6.1,37.2-30.4,37.2c-20.7,0-26.9-31.5-26.9-37.9L380.3,509.7z"/>
		<path fill="#E78724" d="M420.9,453.6c-2.2-6-9.7-30.1-12.2-51.9c-2.9-26.2-1.9-64.6-1.9-64.6s6.5,25.2,12.2,29.2
			c5.6,4.1,16.1,31.6,16.1,31.6s5.6,41.1,8.3,54.9C436.2,454.3,429.9,449.9,420.9,453.6z"/>
		<path fill="#E78724" d="M479.7,290.9c0,0-13.8-4.9-17.8-34.9c-4.1-30.1,4.9-55.9,4.9-55.9s-0.9,41.3,4.1,49.5s8.8,10.5,14.6,21.1
			C491,281.1,483,287.7,479.7,290.9z"/>
		<path fill="#87CCEE" d="M406.5,153.1"/>
		<path fill="#FDC168" d="M463.2,96.1l2.9-1.7C474.3,94.6,463.2,96.1,463.2,96.1z"/>
		<path fill="#FBA919" d="M359.4,111.8c0,0,12.9-2.2,19.5-11.9c6.5-9.7,24.8-29.2,54.2-29.4c29.2-0.2,58.3,7.8,58.3,7.8l-25.3,16
			c-2.7-0.2-7.3,0-15.1,0.2c-31.8,1-36.7,32.5-36.7,32.5l-112-15.5"/>
		<path fill="#FFFFFF" d="M348.5,285.3c0,0,15.1,15.1,38.4,10.2s37.4-15.1,38.4-33s-4.9-24.8-4.9-24.8s-26,8.2-38.4,18.9
			S360.4,284.8,348.5,285.3z"/>
		<path fill="#C9C9C9" d="M366.9,280.1c0,0,13.1,5.9,27.9,1.2c19.2-6.5,20.6-26.3,20.6-26.3s11.7,34.7-21.2,41.3
			c-26.5,5.3-42.2-10-42.2-10L366.9,280.1z"/>
		<path fill="#463014" d="M351.7,473.9"/>
		<path fill="#463014" d="M452.7,149.7c10.7-8.8,2.7-17.2,3.6-27.2c0.5-5.4,0.9-10.4,2.7-13.3c9.9-15.6,33.2-20.2,33.3-20.4
			l10.9-2.2l-7.3-8.5c-1-1-30.6-29.4-76.5-14.6c-32.1,10.4-55.9,45.6-56.8,46.9l16.1,7.7c0.2-0.3,19-33.3,46.6-42.2
			c22.3-7.1,42.8-0.3,51.7,4.1c-9.4,3.7-21.6,10.5-28.9,22.1c-3.4,5.4-4.1,12.4-4.6,19c-0.7,8.8-1.5,17.2-8,22.6L452.7,149.7z"/>
		<path fill="#463014" d="M481.3,279.4c0,0-13.4-16.7-17.5-49.3c-1.5-12.8,1.2-38.1,5.6-47.9c-0.9,24,5.3,47.9,5.3,47.9
			S478.9,274.6,481.3,279.4z"/>
		<path fill="#463014" d="M410.2,132.8c0,0,4.2-18.9,16.3-28.6c16.8-13.4,37.6-6.3,37.7-6.3l3.1-9.2c-1-0.3-24.7-7.8-46.4,7.5
			c-21.9,15.3-24.5,29.2-24.8,30.9L410.2,132.8z"/>
		<path fill="#463014" d="M438.9,267.5c0,0,7.1-10.2,5.8-21.3c-0.7-5.4-3.2-11.2-7.6-13.1c-8.5-3.7-12.2,6-12.2,6
			S436.7,241.8,438.9,267.5z"/>
		<path fill="#463014" d="M351.7,473.9"/>
		<path fill="#463014" d="M361.2,282.9c-0.3,0.5-0.5,0.9-0.5,0.9s22.1,16.7,44.7-0.2c12.1-9,11-31.3,7.3-40.8
			c-9.7,2.2-17.9,6.1-24.6,10.7c8.7-7.7,16.1-13.4,16.1-13.6l9.9-2.7l19-6.6c0.2,1.5,7.1,34.2-12.9,56.4c-8.8,9.9-50.7,32-70.6-5.8
			L361.2,282.9z"/>
		<path fill="#463014" d="M363.3,285.3c-12.4,18.9-43.9,8.2-43.4-11.9c0,0,20.9,11.6,39.4-9.7c10.9-12.4,45.6-46.8,92.5-35.4
			C419.6,235.5,376.6,265.1,363.3,285.3z"/>
		<g>
			<path fill="#463014" d="M351.7,473.9"/>
		</g>
		<path fill="#463014" d="M456.3,338.7c-3.1,1.7-13.6,12.6-13.6,29.1c0,8.2,0.9,49.3,4.9,74.5c-6.1,3.9-10.4,4.8-16.5,8.8
			c-3.1-29.1-5.3-71.4-4.2-88.4c1.2-19.4,11.6-32.5,21.2-38.1c3.1-1.7,6.1-3.4,9.4-5.1c16.5-9,33.7-18.2,33.7-34
			c0-12.4-4.8-16.1-9.9-20.2l-0.5-0.5c-3.4-2.7-7.1-5.8-9.5-10.9c-6.1-13.9-7.1-49.1,0-58.1c3.6-4.4,13.1-19.5,10.4-29.6
			c-1-3.9-3.4-6.6-7.5-8.7c-4.2-2.2-9.9-3.2-16.8-3.2c-13.6,0-28.7,4.1-36.6,6.6c-27.7,9-61.4,34.5-71.1,42
			c-0.3,0.2-0.5,0.3-0.5,0.3l-6.1,4.2l3.9-6.5c0.2-0.3,24.6-40.6,68.5-55.4c8.5-2.9,25.2-7.7,41.6-7.7c9.9,0,18,1.7,24.6,5.1
			c8,4.1,13.4,10.7,15.6,18.9c5.4,20.2-12.4,42.8-13.1,43.5c-2,3.7-3.1,30.9,1.9,41.8c0.7,1.5,2.5,3.1,4.8,4.9
			c0.7,0.5,1.5,1.2,2.4,1.9c6.8,5.1,17.2,12.9,17.2,30.9c0,24.6-25,37.9-44.9,48.6C462.2,335.5,459.2,337.2,456.3,338.7z"/>
		<path fill="#463014" d="M426.5,146.8c-3.9-6.8-14.1-19.7-37.4-31.1c-26-12.8-56.3-19.2-89.8-19.2l0,0l0,0l0,0l0,0
			c-33.5,0-63.6,6.5-89.8,19.2c-23.3,11.4-33.5,24.3-37.4,31.1l-1.7,2.2l20.1,4.4l0.7-0.9l0.3-0.7c0.3-1.4,3.1-8.5,25.3-19.4
			c23.8-11.6,51.7-17.5,82.6-17.5s58.8,5.9,82.6,17.5c22.3,10.9,25,18,25.3,19.4l0.3,0.7l0.7,0.9l20.1-4.4L426.5,146.8z"/>
		<g>
			<g>
				<path fill="#463014" d="M452.7,149.7c10.7-8.8,2.7-17.2,3.6-27.2c0.5-5.4,0.9-10.4,2.7-13.3c9.9-15.6,33.2-20.2,33.3-20.4
					l10.9-2.2l-7.3-8.5c-1-1-30.6-29.4-76.5-14.6c-32.1,10.4-55.9,45.6-56.8,46.9l16.1,7.7c0.2-0.3,19-33.3,46.6-42.2
					c22.3-7.1,42.8-0.3,51.7,4.1c-9.4,3.7-21.6,10.5-28.9,22.1c-3.4,5.4-4.1,12.4-4.6,19c-0.7,8.8-1.5,17.2-8,22.6L452.7,149.7z"/>
			</g>
			<g>
				<path fill="#463014" d="M432.1,144.6l2.2-1.9c6-4.9,6.6-13.1,7.5-21.6c0.5-6.8,1.2-13.9,4.9-19.9c6.8-10.7,17.5-17.3,26.4-21.4
					c-5.3-2.2-15.3-5.6-27.5-5.6c-6.8,0-13.4,1-19.7,3.1c-25.5,8.3-43.7,38.1-45.7,41.5l-0.9,1.2l-18.9-8.7l1-1.5
					c0.2-0.3,24.1-36.7,57.6-47.6c9-2.9,18-4.4,26.9-4.4c32.3,0,51.3,19.2,51.5,19.4l9,10.5l-13.6,2.7c-0.2,0-23,4.8-32.3,19.5
					c-1.5,2.6-2,7.3-2.4,12.6c-0.3,3.1,0.3,6.1,1,9c1.4,6.3,2.7,12.8-5.1,19.4l-0.7,0.5L432.1,144.6z"/>
			</g>
		</g>
		<g>
			<g>
				<path fill="#463014" d="M410.2,132.8c0,0,4.2-18.9,16.3-28.6c16.8-13.4,37.6-6.3,37.7-6.3l3.1-9.2c-1-0.3-24.7-7.8-46.4,7.5
					c-21.9,15.3-24.5,29.2-24.8,30.9L410.2,132.8z"/>
			</g>
			<g>
				<path fill="#463014" d="M394.4,128.2l0.2-1.2c0.2-1.5,3.1-16.2,25.3-32c9.2-6.5,20.2-9.9,32-9.9c8.8,0,15.1,1.9,15.8,2.2
					l1.5,0.5l-4.1,12.4l-1.5-0.5c-0.5-0.2-5.8-1.9-12.8-1.9c-9,0-16.8,2.7-23.5,7.8c-11.4,9.2-15.6,27.4-15.8,27.5l-0.3,1.9
					L394.4,128.2z M463.2,96.1l2-6.1c-2.4-0.7-7.1-1.5-13.3-1.5c-11.2,0-21.2,3.1-30.1,9.4c-18.4,12.9-22.8,24.7-23.8,28.6l11.1,4.4
					c1.5-5.1,6.3-19.4,16.5-27.5c7-5.6,15.8-8.5,25.5-8.5C456.5,94.6,460.9,95.4,463.2,96.1z"/>
			</g>
		</g>
		<path fill="#463014" d="M338.6,533c-8.3-9-13.3-18.5-14.5-21.6c-0.7-1.7-1.5-4.9,1-7.5c1.9-1.9,5.3-2.9,9.9-2.9h7.1
			c7.5,0,16.1,0,21.2,0h4.2c6.1,0,9,1.7,10.5,3.2c2,2,2.4,5.1,1,8.8c-3.9,9.9-12.6,18-15.3,20.2c-3.4,2.9-8.3,4.8-13.1,4.8l0,0
			C346.1,538,341.7,536.1,338.6,533z"/>
		<path fill="#463014" d="M346,286.5l17.3-1.2c0,0-4.4,7.8-7.3,17.9c-3.2,11.4,2.9,28.1,2.9,28.1S335.9,305.2,346,286.5z"/>
		<path fill="#E78724" d="M299.4,224.6c-11.1,0-25.3-0.3-36.2-8c0,0,14.1,24.8,36.2,24.8v-3.1v3.1c22.1,0,36.2-24.8,36.2-24.8
			C324.7,224.3,310.4,224.6,299.4,224.6z"/>
		<path fill="#463014" d="M329.8,224.5c-11.1,6.6-20.9,9-30.4,9.2c-9.4-0.2-19.4-2.6-30.4-9.2c0,0,16.1,19.7,30.3,19.9l0,0l0,0l0,0
			l0,0C313.6,244.2,329.8,224.5,329.8,224.5z"/>
		<g>
			<path fill="#463014" d="M367.5,583.7l-1.2-16c52-4.1,68.3-53.7,68.3-59h16.2C450.8,520.6,429.1,578.9,367.5,583.7z"/>
		</g>
		<path fill="#FFFFFF" d="M384.9,479.3c1-5.6,1-10.9-0.2-16c4.8-3.6,13.1-4.8,19.4-6.8c5.1-3.2,31.6,3.4,50.7-19.9
			c24-29.1,18.9-46.2,18.9-46.2c6.1,6.8,12.1,4.2,21.4,36s-4.4,54.1-30.1,76.3c-12.1,10.5-29.2,14.8-44,16.5
			c4.9-4.9-8.5-5.4-17.7-8.8c0.7-7.5-0.5-14.6-6.1-20.6c-3.4-3.6-7.6-5.6-12.1-7.3c-0.2-0.5-0.5-1.2-0.7-1.7
			C384.7,480.3,384.7,479.8,384.9,479.3z"/>
		<path fill="#C9C9C9" d="M403.4,510.1c0.5-1.5,1-3.2,1.4-4.8c0.5-1.7,2.5-6.8,0-1c0.7-1.5,1.2-2.9,1.4-4.4
			c41.7,0,77.9-28.6,70.9-88.7c5.4-7.3,13.1,14.6,13.1,14.6s20.9,60.5-33,84c-17.9,7.8-33.8,13.4-37.6,11.2
			c-7.8,1.5-14.8-3.9-17.5-7.5C402.7,512.3,403.1,511.3,403.4,510.1z"/>
		<path fill="#463014" d="M385.6,470.6c0-5.1-1-10-3.6-15c-0.2-0.3-0.3-0.7-0.5-1c16-0.2,34.5-1.7,50.1-8
			c17.3-7,38.9-30.6,42.5-58.3c0,0,32.5,25.2,23,78.7c-9,50.5-51.2,66.8-99.3,69.7c0-0.3,5.4-11.6,3.7-18.4
			c27.4,2,57.8-8.5,72.6-32.8c13.4-22.3,9.7-60.2,4.1-65.6C465,462.6,416.2,471.3,385.6,470.6z"/>
		<g>
			<path fill="#463014" d="M299.2,536.8"/>
			<path fill="#463014" d="M405.1,483.2c-5.8-6.3-16.3-13.6-40.6-13.6c0,0-46.2,0-64.9,0l0,0l0,0l0,0l0,0c-18.7,0-64.9,0-64.9,0
				c-24.3,0-35,7.5-40.6,13.6c-8.3,9-9.7,21.6-3.9,37.4c15.5,41.8,37.1,84.3,109.5,84.5l0,0l0,0l0,0l0,0
				c72.4,0,94.2-42.7,109.5-84.5C414.8,505,413.4,492.4,405.1,483.2z M393.7,517.7c-7.3,21.1-27,71.9-94.4,72.1
				c-67.3-0.2-87-51-94.4-72.1c-4.1-11.7-3.7-20.2,1-25.7c3.2-3.7,10.5-8,27.4-8h17.5c12.9,0,29.2,0,48.5,0c19.2,0,35.5,0,48.4,0
				h17.5c16.8,0,24.1,4.4,27.4,8C397.5,497.3,397.8,506,393.7,517.7z"/>
		</g>
		<path fill="#463014" d="M380.6,440c8.7,25.3,26.4,45.9,26.4,45.9s-24.3-1.2-25.7-5.4c-1-3.2-21.9-52.4-30.1-109.8
			C358.9,383.2,379.8,437.8,380.6,440z"/>
	</g>
</g>
</svg>
